<?xml version="1.0" standalone="no"?>
<!DOCTYPE svg PUBLIC "-//W3C//DTD SVG 20010904//EN"
 "http://www.w3.org/TR/2001/REC-SVG-20010904/DTD/svg10.dtd">
<svg version="1.0" xmlns="http://www.w3.org/2000/svg"
 width="1417.000000pt" height="838.000000pt" viewBox="0 0 1417.000000 838.000000"
 preserveAspectRatio="xMidYMid meet">
<metadata>
Created by potrace 1.16, written by Peter Selinger 2001-2019
</metadata>
<g transform="translate(0.000000,838.000000) scale(0.100000,-0.100000)"
fill="#000000" stroke="none">
<path d="M5 4190 c0 -2307 1 -3251 2 -2097 2 1153 2 3041 0 4195 -1 1153 -2
209 -2 -2098z"/>
<path d="M14165 4190 c0 -2307 1 -3251 2 -2097 2 1153 2 3041 0 4195 -1 1153
-2 209 -2 -2098z"/>
<path d="M3882 7614 c-29 -20 -52 -65 -52 -101 0 -34 30 -82 62 -99 52 -29
126 -7 153 46 44 85 -3 170 -94 170 -26 0 -56 -7 -69 -16z"/>
<path d="M3306 6949 c-53 -41 -18 -129 51 -129 32 0 73 42 73 75 0 33 -41 75
-73 75 -13 0 -36 -9 -51 -21z"/>
<path d="M5153 6780 c-78 -18 -160 -87 -205 -173 l-23 -42 0 -1420 0 -1420 30
-54 c37 -68 102 -125 171 -151 53 -19 75 -20 739 -20 433 0 686 -4 690 -10 8
-13 -56 -149 -96 -205 l-32 -45 -561 0 c-523 0 -564 -2 -601 -19 -47 -21 -93
-71 -101 -109 -12 -60 3 -57 -304 -60 l-283 -2 -53 57 c-81 87 -108 143 -108
228 0 87 23 139 94 212 59 61 66 98 25 138 -24 25 -25 25 -229 25 -113 0 -207
3 -209 8 -3 4 10 128 30 277 19 148 32 279 29 291 -10 38 -55 83 -90 90 l-34
6 -4 151 c-3 139 -6 156 -28 197 -32 57 -102 101 -170 108 l-50 5 0 61 c-1
104 -40 165 -134 207 -37 16 -60 20 -94 15 -61 -8 -125 -47 -154 -93 -22 -37
-23 -45 -28 -341 l-5 -304 -40 -14 c-22 -7 -50 -25 -62 -39 -31 -35 -30 -83 7
-368 17 -127 29 -236 26 -243 -3 -8 -39 -12 -106 -13 -60 -1 -122 -8 -149 -17
-101 -34 -194 -123 -231 -222 -46 -123 -9 -322 74 -391 9 -7 16 -17 16 -22 0
-5 -96 -9 -214 -9 -133 0 -226 -4 -247 -11 -90 -31 -139 -100 -139 -199 0 -93
32 -149 106 -189 38 -21 50 -21 579 -21 408 0 544 -3 553 -12 9 -9 12 -206 12
-823 0 -617 3 -814 12 -823 15 -15 51 -15 66 0 9 9 12 120 12 438 0 235 3 603
7 818 l6 392 74 -2 73 -1 0 -187 c0 -103 3 -397 7 -654 l6 -468 22 -10 c16 -7
29 -7 44 1 21 12 21 15 21 374 0 199 3 494 7 655 l6 292 1553 0 1552 0 4 -232
c3 -232 3 -233 31 -290 32 -65 84 -111 157 -139 46 -17 81 -19 398 -19 l348 0
53 -26 c83 -42 138 -137 129 -225 l-3 -34 -100 -5 c-115 -6 -151 -23 -185 -90
-18 -36 -20 -60 -20 -255 0 -238 5 -262 59 -308 51 -43 94 -49 325 -45 197 3
213 4 246 25 20 12 46 40 58 61 21 38 22 51 22 266 0 251 -3 264 -64 311 -35
27 -114 45 -197 45 l-46 0 -5 73 c-9 142 -91 245 -229 288 -55 17 -95 19 -400
19 -320 0 -342 1 -379 20 -21 11 -51 36 -67 57 l-28 36 -3 234 -3 233 1544 0
1544 0 7 -46 c3 -26 6 -329 6 -673 0 -474 3 -630 12 -639 15 -15 51 -15 66 0
9 9 12 90 12 303 0 159 3 462 7 672 l6 382 76 -2 76 -2 6 -385 c3 -212 7 -588
8 -836 1 -418 2 -452 19 -467 15 -13 22 -14 42 -4 l25 13 5 844 5 845 577 5
576 5 39 31 c57 46 83 98 83 167 0 87 -39 153 -115 195 -24 13 -69 18 -215 22
l-185 5 4 40 c5 62 14 72 71 77 90 9 150 74 150 164 0 45 -5 59 -30 88 -17 19
-51 43 -76 53 -44 18 -45 18 -38 56 15 92 -4 154 -53 176 -36 16 -680 15 -712
-2 -14 -6 -34 -27 -45 -46 l-20 -34 28 -161 c15 -89 37 -215 50 -281 13 -66
20 -123 16 -128 -3 -4 -102 -6 -219 -5 l-213 3 -21 54 c-35 97 -145 182 -268
210 -75 18 -210 13 -280 -9 -114 -35 -205 -111 -239 -200 -24 -62 -14 -60
-254 -60 -121 0 -226 4 -232 8 -6 4 -14 22 -17 40 -4 19 -16 47 -27 63 l-21
28 23 5 c13 3 68 10 123 16 55 6 152 18 215 26 l115 14 47 50 c59 63 77 111
53 146 -14 22 -22 25 -63 22 l-47 -3 -8 45 c-4 25 -13 103 -21 173 -12 117
-16 130 -41 157 -20 21 -39 30 -69 32 l-41 3 -5 1340 -5 1340 -28 57 c-30 62
-83 115 -149 150 l-43 23 -1885 2 c-1037 0 -1899 -2 -1917 -7z m3760 -91 c48
-13 112 -70 139 -123 20 -40 20 -51 21 -1243 0 -662 -2 -1206 -5 -1208 -2 -3
-915 -5 -2029 -5 l-2024 0 -3 1187 c-2 1333 -6 1256 69 1332 75 75 -73 70
1964 70 1261 1 1842 -2 1868 -10z m-5284 -1654 c42 -21 61 -71 61 -158 0 -54
-4 -78 -15 -87 -8 -7 -25 -29 -37 -49 -21 -32 -24 -52 -28 -195 l-5 -160 -77
-2 -78 -3 0 292 c0 322 -1 319 64 358 37 23 77 24 115 4z m248 -297 c55 -38
64 -70 61 -220 l-3 -132 -120 0 -120 -1 -3 132 c-3 152 7 191 60 223 43 26 84
25 125 -2z m181 -450 c7 -7 12 -15 12 -18 0 -3 -150 -7 -332 -8 -209 -2 -338
-8 -345 -14 -8 -6 -11 -24 -8 -47 23 -167 46 -348 51 -408 l5 -73 -30 0 c-17
0 -31 4 -31 8 0 4 -14 111 -30 237 -37 281 -39 313 -20 325 23 15 713 13 728
-2z m-448 -114 c12 -12 19 -53 25 -143 3 -40 6 -76 7 -80 4 -37 -17 -53 -80
-58 -73 -6 -77 -1 -86 102 -3 39 -8 88 -12 110 -4 32 -1 44 13 57 27 24 113
32 133 12z m5478 -230 c2 -49 -1 -74 -10 -81 -7 -6 -85 -21 -173 -33 -236 -32
-262 -49 -253 -165 5 -50 2 -65 -9 -69 -29 -12 -3416 -6 -3458 5 -59 16 -113
57 -143 108 -25 43 -27 56 -30 179 l-4 132 2039 -2 2038 -3 3 -71z m162 -156
c10 -27 44 -317 37 -324 -2 -3 -63 -11 -135 -18 -160 -17 -184 -29 -212 -104
-11 -29 -20 -57 -20 -61 0 -22 -65 -28 -104 -9 -47 21 -57 51 -81 246 -23 174
-22 222 2 222 15 0 429 61 438 65 31 12 66 4 75 -17z m2097 -161 c12 -12 9
-45 -27 -238 -22 -123 -45 -248 -51 -277 l-10 -52 -242 2 -242 3 -11 60 c-49
265 -84 465 -84 484 0 13 9 25 23 30 12 5 159 7 326 5 245 -2 307 -6 318 -17z
m-6927 -17 c0 -5 -16 -30 -35 -56 -19 -25 -35 -50 -35 -55 0 -5 -240 -9 -600
-9 -657 0 -642 1 -693 -59 -55 -66 -44 -158 26 -215 l39 -31 608 -3 608 -3 41
-55 c22 -30 41 -57 41 -59 0 -3 -299 -5 -665 -5 l-666 0 -47 24 c-97 50 -151
129 -160 232 -7 88 19 154 84 221 84 85 53 82 802 82 425 1 652 -2 652 -9z
m3021 -130 c21 -42 109 -230 109 -235 0 -3 -225 -5 -500 -5 -275 0 -500 2
-500 4 0 2 21 46 48 97 26 52 52 109 59 127 l11 32 383 -2 c327 -3 383 -5 390
-18z m1228 -2 c5 -13 12 -52 16 -88 4 -36 16 -82 26 -102 11 -21 19 -40 19
-43 0 -3 -236 -5 -524 -5 l-524 0 -32 43 c-35 47 -100 178 -100 202 0 13 64
15 555 15 l555 0 9 -22z m-4351 -94 l-3 -29 -104 -7 c-115 -8 -147 -18 -55
-18 32 0 83 -3 112 -6 51 -7 52 -7 52 -40 l0 -34 -584 0 -584 0 -31 26 c-31
26 -39 60 -25 98 15 40 31 41 629 46 319 3 584 2 588 -1 5 -4 7 -19 5 -35z
m5082 2 c0 -18 -55 -65 -83 -71 -32 -6 -273 -35 -297 -35 -26 0 -27 43 -1 69
15 15 46 20 167 30 82 7 158 14 169 15 41 6 45 6 45 -8z m410 -185 c9 -100 70
-95 70 5 0 31 5 54 10 54 23 0 134 -42 169 -65 48 -30 113 -104 109 -125 -3
-13 -46 -15 -331 -18 -278 -2 -327 0 -327 12 0 20 97 124 134 143 48 25 129
53 146 50 10 -1 17 -19 20 -56z m-969 -79 c16 -18 29 -41 29 -52 0 -20 -11
-20 -1814 -20 -1232 0 -1817 3 -1821 10 -10 15 27 73 56 87 19 10 396 12 1772
10 l1749 -2 29 -33z m2874 -188 c70 -46 57 -170 -22 -203 -21 -8 -1192 -11
-4636 -9 l-4609 3 -29 33 c-54 61 -33 153 45 189 47 21 9217 9 9251 -13z
m-3577 -1416 l3 -58 -31 0 c-19 0 -40 -9 -55 -25 -24 -23 -25 -31 -25 -135 0
-149 1 -150 155 -150 155 0 155 0 155 154 0 112 -1 115 -26 135 -15 12 -40 21
-56 21 l-29 0 3 58 3 57 55 3 c78 5 118 -5 146 -35 24 -26 24 -28 24 -235 0
-124 -4 -217 -10 -229 -23 -43 -57 -49 -268 -49 -190 0 -201 1 -233 23 -18 12
-36 33 -40 47 -4 14 -7 105 -8 203 -1 204 7 238 61 262 21 9 59 14 103 12 l70
-2 3 -57z"/>
<path d="M5244 6550 c-33 -13 -72 -66 -78 -107 -4 -21 -5 -513 -4 -1094 l3
-1056 28 -36 c17 -23 41 -40 65 -47 26 -8 572 -10 1834 -8 l1796 3 27 25 c57
53 55 1 55 1149 0 1196 5 1122 -74 1161 -42 20 -49 20 -1837 19 -987 0 -1803
-4 -1815 -9z m3626 -85 c20 -18 20 -36 20 -1079 0 -945 -2 -1064 -16 -1084
l-15 -22 -1790 0 c-1776 0 -1789 0 -1809 20 -20 20 -20 33 -20 1079 0 994 1
1060 18 1080 16 20 27 21 222 23 113 2 917 2 1788 2 1504 -1 1584 -2 1602 -19z"/>
<path d="M5532 6340 c-18 -11 -41 -34 -52 -52 -19 -32 -20 -53 -20 -908 0
-991 -6 -922 80 -967 l44 -23 1201 2 1201 3 37 25 c71 48 68 4 65 975 -3 964
2 888 -69 941 l-33 24 -1210 0 c-1191 0 -1212 0 -1244 -20z m2458 -87 c19 -24
20 -37 18 -137 l-3 -111 -1232 -3 -1233 -2 0 120 c0 107 2 122 20 140 20 20
33 20 1214 20 l1195 0 21 -27z m-2400 -1017 c0 -381 3 -708 6 -725 7 -34 -2
-39 -32 -17 -18 14 -19 35 -22 712 -1 384 0 704 2 711 3 7 15 13 26 13 20 0
20 -3 20 -694z m502 605 c20 -1 44 -8 53 -17 15 -15 15 -18 -1 -35 -16 -17
-34 -19 -210 -19 -162 0 -195 3 -208 16 -19 19 -20 28 -3 42 20 17 65 19 369
13z m-17 -221 l0 -25 -171 -3 c-143 -2 -173 0 -184 13 -10 12 -10 18 0 30 11
13 41 15 184 13 l171 -3 0 -25z m660 0 l0 -25 -295 0 c-281 0 -295 1 -298 19
-2 10 2 22 10 27 7 5 141 8 298 6 l285 -2 0 -25z m404 11 c20 -36 -6 -42 -170
-39 -141 3 -154 5 -157 22 -2 10 2 22 10 27 7 5 79 9 160 9 134 0 148 -2 157
-19z m-761 -160 c8 -1 12 -11 10 -28 l-3 -28 -320 -3 c-252 -2 -324 0 -338 10
-21 15 -14 45 11 50 13 3 604 2 640 -1z m228 -176 c4 -8 1 -22 -6 -30 -19 -22
-871 -22 -890 0 -7 8 -10 22 -6 30 5 13 62 15 451 15 389 0 446 -2 451 -15z
m332 -12 l-3 -28 -125 -3 c-106 -2 -127 0 -137 14 -27 37 -8 44 134 44 l134 0
-3 -27z m-653 -163 l0 -25 -288 -3 c-249 -2 -288 0 -293 13 -4 8 -4 22 0 30 5
13 44 15 293 13 l288 -3 0 -25z m-301 -153 c18 -29 -10 -37 -142 -37 -128 0
-144 6 -128 45 5 13 26 15 132 13 109 -3 128 -6 138 -21z m461 -7 l0 -25 -203
-3 c-174 -2 -203 0 -208 13 -4 8 -4 22 0 30 5 13 34 15 208 13 l203 -3 0 -25z
m109 -146 c9 -3 16 -17 16 -30 0 -32 -19 -35 -169 -32 -103 3 -126 6 -134 20
-8 12 -7 21 2 32 11 13 37 16 141 16 71 0 135 -3 144 -6z m-519 -194 l0 -25
-162 -3 c-154 -2 -162 -2 -168 18 -12 38 1 41 168 38 l162 -3 0 -25z"/>
<path d="M5699 6207 c-31 -24 -42 -56 -28 -88 32 -78 139 -59 139 24 0 59 -67
98 -111 64z"/>
<path d="M5953 6198 c-48 -52 -20 -128 47 -128 65 0 95 83 47 128 -30 28 -68
28 -94 0z"/>
<path d="M6212 6197 c-45 -48 -16 -127 48 -127 65 0 95 83 47 128 -30 28 -68
28 -95 -1z"/>
<path d="M8390 5164 c0 -5 16 -58 36 -119 63 -194 65 -196 89 -112 21 73 31
83 99 105 33 10 61 23 63 29 2 5 -56 29 -129 52 -73 23 -139 45 -145 48 -7 2
-13 1 -13 -3z"/>
<path d="M7011 3903 c-33 -17 -61 -63 -61 -101 0 -33 44 -86 80 -98 75 -25
140 24 140 105 0 39 -5 52 -28 75 -37 34 -86 42 -131 19z"/>
<path d="M10857 6603 c-13 -12 -7 -43 14 -85 l21 -41 -22 -47 c-12 -26 -20
-56 -18 -66 5 -28 42 -29 88 -3 l40 23 45 -22 c93 -45 114 -16 65 90 -11 23
-9 33 10 72 24 50 20 86 -10 86 -11 0 -40 -10 -65 -22 l-45 -22 -39 22 c-39
22 -72 28 -84 15z"/>
<path d="M11375 5815 c-46 -45 -19 -118 43 -118 43 0 72 28 72 69 0 66 -69 96
-115 49z"/>
<path d="M11061 4606 c-6 -7 -9 -21 -5 -30 6 -15 28 -16 208 -14 l201 3 0 25
0 25 -196 3 c-158 2 -198 0 -208 -12z"/>
<path d="M10562 4422 c-55 -52 -56 -136 -2 -184 l30 -28 325 0 c323 0 324 0
339 -22 22 -31 20 -74 -4 -98 -18 -18 -33 -20 -169 -20 -132 0 -151 -2 -173
-20 -34 -26 -50 -68 -46 -121 3 -39 6 -44 28 -44 22 0 25 6 33 50 4 27 13 55
19 62 8 10 51 13 164 13 l154 0 32 29 c28 25 32 35 36 94 4 62 3 66 -30 102
l-33 36 -150 -1 c-83 0 -232 2 -333 6 -184 7 -184 7 -193 32 -7 18 -5 31 6 48
l15 24 254 0 c140 0 261 3 270 6 19 7 21 35 4 52 -9 9 -85 12 -279 12 l-267 0
-30 -28z"/>
<path d="M2576 2174 c-10 -9 -20 -30 -23 -46 -5 -25 -15 -34 -54 -50 -73 -31
-72 -53 2 -77 30 -10 40 -20 54 -56 9 -25 21 -48 27 -51 14 -9 48 32 48 56 0
20 31 50 52 50 9 0 26 8 39 19 19 15 21 21 11 34 -7 8 -25 18 -40 22 -37 9
-60 31 -67 65 -9 41 -29 55 -49 34z"/>
<path d="M11182 1997 c-51 -55 -12 -147 63 -147 74 0 111 84 64 144 -28 35
-95 37 -127 3z"/>
<path d="M7045 1636 c-40 -17 -82 -67 -95 -114 -13 -49 -13 -386 1 -435 15
-54 72 -114 121 -128 25 -6 123 -9 258 -7 l218 3 38 30 c72 59 75 71 72 331
l-3 231 -27 35 c-49 64 -68 68 -325 68 -167 -1 -236 -4 -258 -14z m506 -94
l29 -32 0 -201 c0 -230 -5 -251 -68 -269 -23 -7 -110 -10 -235 -8 l-199 3 -29
33 -30 34 3 208 c3 191 5 210 23 230 11 12 29 26 40 31 11 4 114 7 228 6 l209
-2 29 -33z"/>
<path d="M7163 1476 c-17 -8 -34 -24 -38 -36 -6 -18 -9 -148 -6 -248 1 -13 12
-34 26 -47 23 -24 29 -25 158 -25 132 0 135 1 161 26 25 26 26 30 26 155 0
120 -1 130 -24 155 -23 27 -26 28 -147 31 -92 3 -132 0 -156 -11z m258 -46
c17 -10 19 -22 19 -123 0 -75 -4 -117 -12 -125 -8 -8 -51 -12 -130 -12 -142 0
-138 -4 -138 139 0 131 0 131 136 131 58 0 114 -5 125 -10z"/>
<path d="M2845 1475 c-14 -13 -25 -36 -25 -50 0 -36 42 -75 80 -75 65 0 95 83
47 128 -31 29 -72 28 -102 -3z"/>
<path d="M3816 1104 c-14 -13 -16 -58 -16 -335 0 -202 4 -327 10 -340 13 -24
52 -25 73 -1 15 16 17 54 17 333 0 269 -2 318 -16 337 -18 26 -46 28 -68 6z"/>
<path d="M10230 1060 c-7 -12 -9 -118 -8 -302 l3 -282 28 -16 c27 -14 29 -14
48 9 18 22 19 41 19 298 0 170 -4 282 -10 294 -14 26 -66 26 -80 -1z"/>
<path d="M3566 767 c-14 -11 -17 -29 -18 -112 0 -137 -1 -134 27 -147 21 -9
28 -8 45 7 18 16 20 31 20 125 0 91 -3 109 -18 123 -22 20 -33 21 -56 4z"/>
<path d="M10502 758 c-8 -8 -12 -50 -12 -123 0 -95 3 -114 18 -128 15 -13 22
-14 42 -4 24 12 25 17 28 124 2 91 0 114 -13 127 -19 19 -46 21 -63 4z"/>
</g>
</svg>
